{"title":"Everymans War 2009 DVDRip.MP4.AAC.FEEL-FREE","uid":5631607,"size":879214026,"categoryP":"video","categoryS":"movies","magnet":"?xt=urn:btih:1207cf70035092ff4d8b69c4535110c317400f75&amp;dn=Everymans+War+2009+DVDRip.MP4.AAC.FEEL-FREE&amp;tr=udp%3A%2F%2Ftracker.openbittorrent.com%3A80&amp;tr=udp%3A%2F%2Fopen.demonii.com%3A1337&amp;tr=udp%3A%2F%2Ftracker.coppersurfer.tk%3A6969&amp;tr=udp%3A%2F%2Fexodus.desync.com%3A6969","seeders":0,"leechers":0,"uploader":"hiest","files":8,"time":1276706132,"description":"Genre:War\nLanguage:English\nIMDb:http://www.imdb.com/title/tt1209319/\nSource:NTSC.DVDR-MSD. \nEncoder: Tony2\n..............................................\nGeneral\nComplete name : Everymans War 2009 DVDRip.MP4.AAC.FEEL-FREE\nFormat : MPEG-4\nFormat profile : Base Media\nCodec ID : isom\nFile size : 838 MiB\nDuration : 1h 40mn\nOverall bit rate : 1 166 Kbps\n...............................................\nVideo\nID : 1\nFormat : MPEG-4 Visual\nFormat profile : Simple@L1\nFormat settings, BVOP : No\nFormat settings, QPel : No\nFormat settings, GMC : No warppoints\nFormat settings, Matrix : Default (H.263)\nCodec ID : 20\nDuration : 1h 40mn\nBit rate mode : Variable\nBit rate : 1 022 Kbps\nWidth : 704 pixels\nHeight : 304 pixels\nDisplay aspect ratio : 2.35:1\nFrame rate mode : Constant\nFrame rate : 25.000 fps\nResolution : 24 bits\nColorimetry : 4:2:0\nScan type : Progressive\nBits/(Pixel*Frame) : 0.191\nStream size : 735 MiB (88%)\nWriting library : Lavc51.40.4\n...............................................\nAudio\nID : 2\nFormat : AAC\nFormat/Info : Advanced Audio Codec\nFormat version : Version 4\nFormat profile : LC\nFormat settings, SBR : No\nCodec ID : 40\nDuration : 1h 40mn\nBit rate mode : Variable\nBit rate : 139 Kbps\nChannel(s) : 6 channels\nChannel positions : Front: L C R, Rear: L R, LFE\nSampling rate : 48.0 KHz\nResolution : 16 bits\nStream size : 99.7 MiB (12%)\n...............................................\nPlot: \nThe true story of Don Smith's heroic experience at the Battle of the Bulge while with the 94th Infantry\n...................................................\nScreens: &lt;a href=&quot;\nhttp://postimg.com/image/17000/16421.jpg&quot; rel=&quot;nofollow&quot; target=&quot;_NEW&quot;&gt;\nhttp://postimg.com/image/17000/16421.jpg&lt;/a&gt;\n......................................................","torrent":{"xt":"urn:btih:1207cf70035092ff4d8b69c4535110c317400f75","amp;dn":"Everymans+War+2009+DVDRip.MP4.AAC.FEEL-FREE","amp;tr":["udp%3A%2F%2Ftracker.openbittorrent.com%3A80","udp%3A%2F%2Fopen.demonii.com%3A1337","udp%3A%2F%2Ftracker.coppersurfer.tk%3A6969","udp%3A%2F%2Fexodus.desync.com%3A6969"],"infoHash":"1207cf70035092ff4d8b69c4535110c317400f75","infoHashBuffer":{"type":"Buffer","data":[18,7,207,112,3,80,146,255,77,139,105,196,83,81,16,195,23,64,15,117]},"announce":[],"urlList":[]}}